<svg width="1440" height="277" viewBox="0 0 1440 277" fill="none" xmlns="http://www.w3.org/2000/svg">
<path d="M18.4075 90.0535H0V277H1440V80.5542H1424.66V53.1962L1348.73 30.7778V77.5144H1328.4V134.89H1314.98V98.7929H1253.62V72.9547H1216.43V98.7929H1201.09V134.89H1186.9V207.465H1178.84V131.091H1169.64V37.2373H1160.05C1160.05 37.2373 1158.52 8.3594 1132.06 7.59945C1105.6 6.83951 1101.76 37.2373 1101.76 37.2373H1092.56V131.091H1075.69V154.269H1058.05V145.15H1053.06V138.69H1036.57V110.952H1029.67V98.7929H1017.4V110.952H980.581V138.69H919.606L914.62 151.989H898.897V80.5542H885.475V69.155H874.354V59.2757H856.33L849.427 0L843.675 59.2757H824.884V71.4348H814.146V80.5542H804.943V176.307H794.205V154.269H786.535V145.15H752.021V131.091H735.531V110.952H728.245V131.091H723.26V121.211H713.289V131.091H685.678V145.15H672.639V154.269H659.601V136.41H637.358V131.091H597.475V71.4348H587.505V62.6955H582.136V55.856H574.85V47.8765L568.714 40.6571H548.389L538.418 50.1564V55.856H532.282V62.6955H526.913V71.4348H518.86V180.867H509.656V113.992H494.7V98.0329H473.609V90.0535H467.473V98.0329H434.109V113.992H389.625V134.89H378.12V109.052H383.872V50.1564H324.048V90.0535L283.398 106.392V131.091H276.112V113.612H256.937V81.6941H261.923V74.4746H254.636L230.86 51.6763V46.3567H220.506V51.6763L195.963 74.4746H192.511V81.6941H195.963V113.612H174.871V183.907H170.269V106.392H152.628V90.0535H98.5566V113.612H90.5033V98.0329H78.9987V87.7737H66.3435V58.1358H28.3782V74.4746H18.4075V90.0535Z" fill="#1A202C"/>
</svg>
